<svg xmlns="http://www.w3.org/2000/svg" viewBox="0 0 236.67 236.67"><title>Fichier 28</title><g id="Calque_2" data-name="Calque 2"><g id="Calque_1-2" data-name="Calque 1"><rect width="236.67" height="236.67" rx="39.4" fill="#0084a8"/><path d="M175.65,77.11V181.74a10.4,10.4,0,0,1-10.4,10.4h-8.46a10.4,10.4,0,0,1-10.41-10.4V77.11a8.31,8.31,0,0,1,.78-3.5L159.23,45.7a2,2,0,0,1,3.58,0l12.06,27.91A8.16,8.16,0,0,1,175.65,77.11Z" fill="none" stroke="#fff" stroke-linecap="round" stroke-linejoin="round" stroke-width="7.09"/><line x1="146.38" y1="163.06" x2="175.65" y2="163.06" fill="none" stroke="#fff" stroke-linecap="round" stroke-linejoin="round" stroke-width="7.09"/><rect x="61.02" y="47.51" width="39.4" height="144.63" stroke-width="7.09" stroke="#fff" stroke-linecap="round" stroke-linejoin="round" fill="none"/><line x1="61.02" y1="76.47" x2="74.71" y2="76.47" fill="none" stroke="#fff" stroke-linecap="round" stroke-linejoin="round" stroke-width="7.09"/><line x1="61.02" y1="98.15" x2="74.71" y2="98.15" fill="none" stroke="#fff" stroke-linecap="round" stroke-linejoin="round" stroke-width="7.09"/><line x1="61.02" y1="119.83" x2="74.71" y2="119.83" fill="none" stroke="#fff" stroke-linecap="round" stroke-linejoin="round" stroke-width="7.09"/><line x1="61.02" y1="141.51" x2="74.71" y2="141.51" fill="none" stroke="#fff" stroke-linecap="round" stroke-linejoin="round" stroke-width="7.09"/><line x1="61.02" y1="163.19" x2="74.71" y2="163.19" fill="none" stroke="#fff" stroke-linecap="round" stroke-linejoin="round" stroke-width="7.09"/></g></g></svg>