<svg xmlns="http://www.w3.org/2000/svg" viewBox="0 0 234.98 234.98"><title>Fichier 26</title><g id="Calque_2" data-name="Calque 2"><g id="Calque_1-2" data-name="Calque 1"><rect width="234.98" height="234.98" rx="39.12" fill="#0084a8"/><rect x="52.15" y="52.33" width="63.67" height="48.49" rx="3.16" transform="translate(160.56 -7.41) rotate(90)" stroke-width="7.09" stroke="#fff" stroke-linecap="round" stroke-linejoin="round" fill="none"/><rect x="69.26" y="35.21" width="29.44" height="48.49" rx="2.15" transform="translate(143.44 -24.52) rotate(90)" stroke-width="7.09" stroke="#fff" stroke-linecap="round" stroke-linejoin="round" fill="none"/><line x1="77.91" y1="94.98" x2="90.05" y2="94.98" fill="none" stroke="#fff" stroke-linecap="round" stroke-linejoin="round" stroke-width="7.09"/><rect x="119.16" y="52.33" width="63.67" height="48.49" rx="3.16" transform="translate(227.57 -74.42) rotate(90)" stroke-width="7.09" stroke="#fff" stroke-linecap="round" stroke-linejoin="round" fill="none"/><rect x="136.27" y="35.21" width="29.44" height="48.49" rx="2.15" transform="translate(210.45 -91.53) rotate(90)" stroke-width="7.09" stroke="#fff" stroke-linecap="round" stroke-linejoin="round" fill="none"/><line x1="144.92" y1="94.98" x2="157.06" y2="94.98" fill="none" stroke="#fff" stroke-linecap="round" stroke-linejoin="round" stroke-width="7.09"/><rect x="52.15" y="134.15" width="63.67" height="48.49" rx="3.16" transform="translate(242.38 74.42) rotate(90)" stroke-width="7.09" stroke="#fff" stroke-linecap="round" stroke-linejoin="round" fill="none"/><rect x="69.26" y="117.03" width="29.44" height="48.49" rx="2.15" transform="translate(225.26 57.3) rotate(90)" stroke-width="7.09" stroke="#fff" stroke-linecap="round" stroke-linejoin="round" fill="none"/><line x1="77.91" y1="176.8" x2="90.05" y2="176.8" fill="none" stroke="#fff" stroke-linecap="round" stroke-linejoin="round" stroke-width="7.09"/><rect x="119.16" y="134.15" width="63.67" height="48.49" rx="3.16" transform="translate(309.39 7.41) rotate(90)" stroke-width="7.09" stroke="#fff" stroke-linecap="round" stroke-linejoin="round" fill="none"/><rect x="136.27" y="117.03" width="29.44" height="48.49" rx="2.15" transform="translate(292.27 -9.71) rotate(90)" stroke-width="7.09" stroke="#fff" stroke-linecap="round" stroke-linejoin="round" fill="none"/><line x1="144.92" y1="176.8" x2="157.06" y2="176.8" fill="none" stroke="#fff" stroke-linecap="round" stroke-linejoin="round" stroke-width="7.09"/></g></g></svg>