<svg xmlns="http://www.w3.org/2000/svg" viewBox="0 0 236.67 236.67"><title>Fichier 27</title><g id="Calque_2" data-name="Calque 2"><g id="Calque_1-2" data-name="Calque 1"><rect width="236.67" height="236.67" rx="39.4" fill="#d9a74a"/><path d="M100.08,161.54l30.1,6.29a8.18,8.18,0,0,0,9.68-6.33h0a8.18,8.18,0,0,0-6.33-9.68l-43.26-9A16.22,16.22,0,0,0,78,145.09L48.49,164.41,67.3,193.16l13.45-7.42a10.35,10.35,0,0,1,7.15-1.08L122.85,192a15.46,15.46,0,0,0,11.71-2.24l49.77-32.92a8.59,8.59,0,0,0,2.55-11.7h0a8.58,8.58,0,0,0-11.31-3.05l-34,18" fill="none" stroke="#fff" stroke-linecap="round" stroke-linejoin="round" stroke-width="7.09"/><circle cx="117.05" cy="83.57" r="38.92" fill="none" stroke="#fff" stroke-linecap="round" stroke-linejoin="round" stroke-width="7.09"/><circle cx="117.05" cy="83.57" r="21.17" fill="none" stroke="#fff" stroke-linecap="round" stroke-linejoin="round" stroke-width="7.09"/><circle cx="117.05" cy="83.57" r="4.56" fill="none" stroke="#fff" stroke-linecap="round" stroke-linejoin="round" stroke-width="7.09"/><line x1="117.05" y1="83.57" x2="158.54" y2="42.09" fill="none" stroke="#fff" stroke-linecap="round" stroke-linejoin="round" stroke-width="7.09"/></g></g></svg>