<svg xmlns="http://www.w3.org/2000/svg" viewBox="0 0 236.67 236.67"><title>Fichier 25</title><g id="Calque_2" data-name="Calque 2"><g id="Calque_1-2" data-name="Calque 1"><rect width="236.67" height="236.67" rx="39.4" fill="#f28067"/><path d="M192.65,78.59v65.74A17.71,17.71,0,0,1,174.94,162h-61L78.83,186.78V162H61.73A17.71,17.71,0,0,1,44,144.33V78.6A17.72,17.72,0,0,1,61.74,60.88h113.2A17.71,17.71,0,0,1,192.65,78.59Z" fill="none" stroke="#fff" stroke-linejoin="round" stroke-width="7.09"/><path d="M138.77,109a2.89,2.89,0,0,1,0,4.91l-35.15,21a2.75,2.75,0,0,1-4.12-2.45v-42A2.75,2.75,0,0,1,103.62,88Z" fill="none" stroke="#fff" stroke-miterlimit="10" stroke-width="7.09"/></g></g></svg>